<svg xmlns="http://www.w3.org/2000/svg" viewBox="0 0 450 660"><defs><style>.cls-1{fill:#fff;}.cls-2{fill:#e5e5e5;}.cls-3{fill:#c97e56;}.cls-4{fill:#bc7353;}.cls-5{fill:#c4666c;}</style></defs><title>numse2</title><g id="Layer_3" data-name="Layer 3"><path class="cls-1" d="M447.78,37.39V618.8a39.11,39.11,0,0,1-39,39H39a38.7,38.7,0,0,1-20.57-5.91,39.38,39.38,0,0,1-10-9A38.74,38.74,0,0,1,0,618.8V37.39a39.13,39.13,0,0,1,39-39H408.76a38.77,38.77,0,0,1,23.39,7.84,39.52,39.52,0,0,1,6,5.53A38.82,38.82,0,0,1,447.78,37.39Z"/><path class="cls-2" d="M447.78,37.39V618.8a39.13,39.13,0,0,1-39,39H39a38.68,38.68,0,0,1-20.57-5.91,39.22,39.22,0,0,1-10-9l30.24-45.44L125.8,466.56l16-24.13,2.71-4.07,3.41-5.12,6-9.06,8.4-12.62L212,337.1,432.15,6.22a39.52,39.52,0,0,1,6,5.53A38.82,38.82,0,0,1,447.78,37.39Z"/><path class="cls-3" d="M209.32,657.81a935.73,935.73,0,0,0,18.23-167.72c.17-9.54.21-19.17,2.22-28.5,3.08-14.25,6.78-22.53,13.61-30.15,5.14-5.74,12.05-11.1,21.8-18.35a65.45,65.45,0,0,0-6.05,10.55c-7.2,16-3.57,29-2.9,50.61a606.61,606.61,0,0,0,34.48,183.56l.78,2.19,138-2.06c0-2.07.11-4.15.16-6.22L434,484.25c.63-24.29,1.26-48.67-1.35-72.83-3.75-34.78-14.11-68.36-25.73-101.46L401,293.53c-1-2.77-2-5.53-3-8.28-16.89-46.6-34-93.78-61.87-134.78-.54-.81-1.09-1.62-1.65-2.42-8.66-12.51-18.54-24.85-21.95-39.68C310.4,99,311,89.28,311.92,79.73A409.45,409.45,0,0,1,328.38-1.62H80.21c13.6,74.7-1.6,152.34-20.79,226.23C53,249.4,46.07,274.21,39.63,299.12q-2,7.77-4,15.55C23.44,363.9,13.77,413.54,13.92,464.11,14.05,512.42,26.23,557.35,34.3,604Q35.85,613,37.15,622c2,14.12-.23,25.7,8.75,35.85Z"/><path class="cls-4" d="M231.45,451.66c-10.41,12.64-26.28,19.81-42.38,22.79s-32.62,2.19-49,1.38Z"/><path class="cls-4" d="M256.38,454.12l32.51,19.28c8.25,4.89,16.84,9.9,26.38,10.84,11.48,1.13,22.6-3.77,33.1-8.56Z"/><path class="cls-5" d="M406.87,310c-34.57,10.48-63.51,36.17-90.57,60.91l-50.61,46.26c-2.21,2-4.47,4.19-6.56,6.51l-15.75,7.8c0-.09-.09-.17-.14-.27a219.55,219.55,0,0,0-97.73-94.74,218.94,218.94,0,0,0-79.3-21.2c-3.31-.25-18.1.48-30.53-.56q1.95-7.77,4-15.55c10.38.16,21.87,1.35,26.47,1.31q22.82-.24,45.61.72c29.29,1.22,58.53,3.88,87.56,8,15.32,2.17,30.59,4.73,46,6.22a332,332,0,0,0,144.92-18.42,77.61,77.61,0,0,1,10.83-3.4Z"/><path class="cls-4" d="M214.88,98c1.67,7.09,3.84,14.08,5,21.27,3.63,22.18-2.28,45,.77,67.31,2.47,18.12,10.73,36.95,3.88,53.91l15-.34c-5.87-2-7.86-9.48-7.16-15.65s3.14-12.2,2.54-18.37c-.41-4.29-2.28-8.29-3.46-12.44-2.15-7.57-2-15.58-1.74-23.44,1.08-32.76,3.56-66.48-7.11-97.47C217.24,57.27,206.06,40.22,207,23.53c6.41,6.8,2.51,26.48,2.95,36A210.93,210.93,0,0,0,214.88,98Z"/></g></svg>