<svg xmlns="http://www.w3.org/2000/svg" viewBox="0 0 450 660"><defs><style>.cls-1{fill:#fff;}.cls-2{fill:#e5e5e5;}.cls-3{fill:#cf936b;}.cls-4{fill:#c4666c;}.cls-5{fill:#260101;}.cls-6{fill:none;}</style></defs><title>doggy</title><g id="Layer_3" data-name="Layer 3"><path class="cls-1" d="M448.89,39.29V621.2a39.25,39.25,0,0,1-39.21,39H38.1a38.94,38.94,0,0,1-20.67-5.92,39.43,39.43,0,0,1-10.08-9A38.74,38.74,0,0,1-1.11,621.2V39.29A39.25,39.25,0,0,1,38.1.25H409.68a39,39,0,0,1,23.5,7.85,39.73,39.73,0,0,1,6,5.53A38.76,38.76,0,0,1,448.89,39.29Z"/><path class="cls-2" d="M448.89,39.29V621.2a39.25,39.25,0,0,1-39.21,39H38.1a38.94,38.94,0,0,1-20.67-5.92,39.43,39.43,0,0,1-10.08-9l30.39-45.48,87.57-131,16.13-24.15,2.73-4.07,3.42-5.13,6.06-9.06,8.45-12.63,49.79-74.53L433.18,8.1a39.73,39.73,0,0,1,6,5.53A38.76,38.76,0,0,1,448.89,39.29Z"/><path class="cls-3" d="M253.54,541.18c-2.81-12.95-12.39-23.33-17.39-35.61-4.31-10.61-5.07-22.33-8.58-33.23-6-18.66-19.8-34-26-52.63-3.9-11.69-4.64-24.17-5.35-36.48a114.69,114.69,0,0,1,16.31,41.66c.93,5.2,1.65,10.79,5.12,14.76s10.91,4.88,13.53.3c1.52-2.66.88-6,.26-8.95-2.83-13.73-3.87-28.9,3.34-40.91,4.16-6.92,11.06-12.95,11.3-21,.29-10.05-9.69-16.95-18.54-21.71-5.14-2.77-10.33-5.5-15.58-8.11-17.3-8.6-35.25-15.87-54.26-18.86A126.39,126.39,0,0,0,102,324.16c-16.64,5-32,13.36-47.31,21.67L26.24,361.3c-4.29,2.33-8.66,4.73-12,8.31-9.84,10.6-7,28.53,2.25,39.64,3.86,4.64,8.87,8.92,9.86,14.87,1,5.73,0,14.51,5.76,14.66a7.76,7.76,0,0,0,4.25-1.58,53.31,53.31,0,0,0,22.86-31.84c-1.39,14.38-2.88,29.15-9.35,42.08-7.46,14.92-21.13,26.45-26.57,42.23-9.27,26.86,7.91,55,12.34,83,1.41,8.92,1.53,18,3,26.93.37,2.25.82,4.48,1.4,6.69,2.46,9.31,7.12,17.86,11.34,26.52Q57.87,646.13,63.05,660h58.4q-2-6.71-3.81-13.43l-1.17-4.28c.46,1.11,1,2.19,1.46,3.26l.48,1q3.14,6.71,6.28,13.43h49.79c4.87-9.19,8.45-19.19,15.21-27.07,4.69,8.51-.21,19-5.66,27.07h43c.28-1.36.56-2.72.83-4.08,4.64-23,8.87-46.21,16.69-68.34C249.84,572.48,256.92,556.79,253.54,541.18ZM114.89,633.81a12.05,12.05,0,0,0,0,2.4q-4.1-15.44-7.71-31c.67,1.09,3.43,2.8,4.11,3.89,12.23-4,20.78-14.67,30.39-23.22A103.81,103.81,0,0,1,184.54,563l-61.35,58.16C119.45,624.7,115.48,628.69,114.89,633.81Z"/><path class="cls-3" d="M96.48,648c18-3.6,37.17,1.16,54.75-4.12,7.17-2.15,13.76-5.89,20.1-9.87a128,128,0,0,0,20.92-15.79,85,85,0,0,0,24.61-46.46c.63-3.64,1-7.44-.06-11-1.28-4.24-4.51-7.62-8-10.28-13.38-10.12-31.89-11.67-48-7s-30.12,14.79-42.34,26.28c-3.66,3.44-7.26,7.12-9.39,11.67-2,4.37-2.61,9.28-3.08,14.09A550.76,550.76,0,0,0,103.39,654Z"/><path class="cls-4" d="M125.49,468l9,22a12.22,12.22,0,0,0,1.74,3.27c1.88,2.28,5.07,2.89,8,3.25,2.43.3,5.13.47,7.1-1a9.71,9.71,0,0,0,2.28-2.8,96.66,96.66,0,0,0,11.83-29.13,8.69,8.69,0,0,0,.16-4.63,9.09,9.09,0,0,0-2.87-3.66l-10.17-9.19a10.92,10.92,0,0,0-3.17-2.25,7.89,7.89,0,0,0-4.81-.16c-5,1.19-8.78,5-12.8,8.17-2.33,1.83-9.79,3.68-10.58,6.4S124.46,465.45,125.49,468Z"/><path class="cls-5" d="M143.66,427.53l.9,13c.08,1.22.47,2.77,1.68,2.9,1.5.16,2-1.93,1.94-3.44l-.57-12.45c5.19.12,10.54-2.38,13.19-6.84s2.08-10.8-1.8-14.26c-3.61-3.22-8.95-3.45-13.78-3-6.24.54-20.13,3.52-19.6,12.32C126.13,424.05,143.25,421.54,143.66,427.53Z"/><path class="cls-5" d="M168.87,372.86c1.1,2.27-1.26,4.79-1.15,7.32.15,3.18,3.86,4.75,6.94,5.56a5.28,5.28,0,0,0,2.42.25,4,4,0,0,0,2.67-3,7.56,7.56,0,0,0-9.63-9.23Z"/><path class="cls-5" d="M100.76,377.19c-3.57-.87-8-.52-10,2.61-1.69,2.75-.46,6.61,2.08,8.59s6,2.4,9.21,2a9.44,9.44,0,0,0,5.77-2.33c1.49-1.5,2-4.1.69-5.75a6.07,6.07,0,0,0-1.63-1.3,26.14,26.14,0,0,0-7.84-3.14Z"/></g><g id="Layer_4" data-name="Layer 4"><polyline class="cls-6" points="-704.38 619.83 -552 618.95 -497.11 618.64 -479.46 618.53 -464.53 618.44 -217.81 617.01 -209.53 616.97 -195.22 616.88 -148.81 616.62 53.39 615.44"/></g></svg>