<svg xmlns="http://www.w3.org/2000/svg" viewBox="0 0 450 660"><defs><style>.cls-1{fill:#fff;}.cls-2{fill:#e5e5e5;}.cls-3{fill:#efcab7;}.cls-4{fill:#368f8c;}.cls-4,.cls-6{stroke:#efcab7;stroke-miterlimit:10;}.cls-5{fill:#d69976;}.cls-6{fill:none;}.cls-7{fill:#f4967d;}.cls-8{fill:#dda07a;}.cls-9{fill:#241d14;}</style></defs><title>ladylady</title><g id="Layer_3" data-name="Layer 3"><path class="cls-1" d="M448.89,39.53V620.94a39.23,39.23,0,0,1-39.21,39H38.1A39,39,0,0,1,17.43,654a39.43,39.43,0,0,1-10.08-9,38.9,38.9,0,0,1-6.88-13.2,38.36,38.36,0,0,1-1.58-10.93V39.53A39.23,39.23,0,0,1,38.1.52H409.68a39.07,39.07,0,0,1,23.5,7.84,39.73,39.73,0,0,1,6,5.53A38.71,38.71,0,0,1,448.89,39.53Z"/><path class="cls-2" d="M448.89,39.53V620.94a39.23,39.23,0,0,1-39.21,39H38.1A39,39,0,0,1,17.43,654a39.43,39.43,0,0,1-10.08-9l29.22-43.68,1.17-1.76,22.17-33.14,38.77-58,26.63-39.82,16.13-24.13,2.73-4.07,3.42-5.12,6.06-9.06,8.45-12.62,24.48-36.61,1.74-2.61,22.73-34,.84-1.26,4.85-7.25,2.76-4.12L228,315.11l8.55-12.78,30-44.92.81-1.22,9-13.41,3.62-5.4,2.25-3.36a0,0,0,0,1,0,0l3.26-4.89,16.06-24L341.14,146l92-137.63a39.73,39.73,0,0,1,6,5.53A38.71,38.71,0,0,1,448.89,39.53Z"/><path class="cls-3" d="M448.89,435.19V620.94a39.23,39.23,0,0,1-39.21,39H77.06c-.29-1.65-.57-3.29-.86-4.94s-.58-3.28-.88-4.93q-1.18-6.47-2.48-12.91c-.25-1.26-.5-2.52-.77-3.77-.86-4.27-1.78-8.53-2.73-12.79-.25-1.16-.52-2.31-.79-3.46-.3-1.36-.61-2.73-.94-4.09-.46-2-1-4-1.43-6a1.6,1.6,0,0,1-.05-.21q-.69-2.85-1.41-5.7c0-.19-.09-.37-.14-.55q-.78-3.15-1.6-6.29T61.32,588c-.56-2.1-1.13-4.18-1.71-6.27l-2.86,2.45L36.57,601.39l-6.38,5.44c-9.84,8.41-19.7,16.82-29.72,25a38.36,38.36,0,0,1-1.58-10.93V495.76l.92-.46q32.21-16,64-32.88,17-9,33.89-18.27,10.35-5.65,20.65-11.42c3.9-2.18,7.93-4.5,10.42-8.19,2.94-4.36,3.26-9.9,3.37-15.15a403.73,403.73,0,0,0-1.85-48.81A87.29,87.29,0,0,0,127.42,344a61.82,61.82,0,0,0-2.14-5.89c-.48-1.17-1-2.33-1.52-3.49-1-2.23-2.11-4.43-3.17-6.64l-.17-.35-.32-.68a357,357,0,0,1-15.88-39.42l-.06-.2a357,357,0,0,1-11.57-43.48c-3.93-19.75-6-41.16,2.94-59.24,9.08-18.42,13.86-36.43,25.41-53.42S149.76,100,170.12,96.71c24-3.85,46.95,8,64.57,25.62a125.25,125.25,0,0,1,8.61,9.53v0a131.35,131.35,0,0,1,9.08,12.63q3.31,5.25,6.25,10.72A179.33,179.33,0,0,1,277.12,208,176.4,176.4,0,0,1,280,236.75c0,.21,0,.42,0,.63q.08,5.1-.16,10.19a156.73,156.73,0,0,1-8.08,43.62s0,0,0,0c-.13.42-.28.83-.43,1.25-1.41,4-3,8.13-4.54,12.29-1.46,3.93-2.83,7.89-3.94,11.84-.45,1.59-.84,3.18-1.18,4.77a51,51,0,0,0-1.24,11.16,34.27,34.27,0,0,0,.71,6.71,30.65,30.65,0,0,0,2.33,6.94c8.49,17.88,31.88,22.11,51.76,22.37l4.47,0q16,0,32-1.42c8.58-.75,17.15-1.82,25.66-3.2,10.71-1.74,22.34-3.82,31.91,1.26,9.37,5,14.13,15.44,18.42,25.11Q437.71,413,448.89,435.19Z"/><path class="cls-4" d="M404.34,660H77.06c-.28-1.65-.56-3.3-.86-4.94s-.57-3.29-.88-4.93q-1.18-6.47-2.48-12.91c-.25-1.26-.5-2.52-.77-3.77-.86-4.27-1.78-8.53-2.73-12.79-.25-1.16-.52-2.31-.79-3.46-.3-1.36-.61-2.73-.94-4.09-.46-2-1-4-1.43-6a1.6,1.6,0,0,1-.05-.21q-.69-2.85-1.41-5.7c0-.19-.09-.37-.14-.55q-.78-3.15-1.6-6.29T61.32,588c-.56-2.1-1.13-4.18-1.71-6.27l-2.86,2.45c.75-5.91,1.91-11.82,3.16-17.67,1.37-6.43,2.85-12.81,4-19.08a230.42,230.42,0,0,0-.13-85q17-9,33.89-18.27a85.6,85.6,0,0,1-1.48,10.33,116.24,116.24,0,0,0,2.48,54c.44,1.54.92,3.06,1.43,4.58,1.63,4.85,3.73,9.81,7.73,13,3.38,2.72,7.76,3.86,12,4.71,49.24,9.76,99.32-11.09,142.61-36.39,11.38-6.66,22.81-13.87,30.87-24.27C304.56,455.73,308,437,311.06,419q4.23-24.71,8.47-49.4c.06-.33.11-.67.18-1q16,0,32-1.42c-.71,1.77-1.58,3.5-2.41,5.22a185.64,185.64,0,0,0-8.7,139.28c8.64,25.4,22.7,48.56,34.25,72.78,11,23.07,19.73,47.12,28.44,71.13A13.77,13.77,0,0,1,404.34,660Z"/><path class="cls-5" d="M263.39,299.19c-1.46,3.93-1.91,4.05-3,8-.4.24-1.32.9-1.71,1.14-7.76,4.81-14.17,11.48-21.61,16.77-3.19,2.26-6.54,4.26-9.9,6.26-4.26,2.53-14.78,8.3-19,10.83-4.89,2.91-3.68,2.65-9.32,3.48-6.26.92-12.55-.89-18.61-2.68l-10.89-3.21-10.33-3c-7.87-2.35-15.75-4.65-23.63-7l-12.42-3.68c-.51-.15-1.28-.3-2.18-.49-1-2.23-2.11-4.43-3.17-6.64l-.17-.35-.32-.68c2.81-1,5.59,1,8.23,2,7.65,3.11,15.41,5.9,23.23,8.51,8.89,3,17.85,5.73,26.82,8.48,4.4,1.35,8.84,2.71,13.43,3,11.05.75,21.49-4.55,31.27-9.71a123.65,123.65,0,0,0,12.87-7.45C244.19,315,252.31,307.06,263.39,299.19Z"/><path class="cls-6" d="M188,286.44a9.54,9.54,0,0,0,2.85.37,9.25,9.25,0,0,0,2.74-.84,51.78,51.78,0,0,1,23.14-3.85c.36,1.07-.35,2.2-1.11,3.05-3.56,4-8.74,6.27-14,7.28s-10.68.85-16,.7c-3-.09-19.82.05-19.36-4.6C166.69,283.56,184.8,285.73,188,286.44Z"/><path class="cls-7" d="M177.38,285a38,38,0,0,1,11.87.75c3.1.58,6.28,1.28,9.4.78,3-.47,5.64-2,8.41-3.13a35.93,35.93,0,0,1,16-2.64c.67,0,1.47.19,1.74.81a1.92,1.92,0,0,1-.25,1.53,34.44,34.44,0,0,1-5.13,8.55c-4.49,5-11.45,6.92-18.12,7.74-8,1-16.36.55-23.9-2.35-2.14-.83-9.52-3.61-10-6.14C166.77,287.41,174.84,285.28,177.38,285Z"/><path class="cls-8" d="M171.43,441.06a68.47,68.47,0,0,0,6.78-2.17c8.19-2.65,17-2.61,25.61-2.54-5.51-3.27-12.36-3.59-18.68-2.49s-12.33,3.5-18.47,5.38c-3,.93-6.21,1.74-9.33,1.17-3.89-.71-7-3.07-11-2.65C153.22,440.19,163.94,442.66,171.43,441.06Z"/><path class="cls-8" d="M283.12,406.63c-4.05,3.27-6.85,7.92-11.11,10.9a36.67,36.67,0,0,1-9,4.11L255,424.47c-4.86,1.72-15.59,7.07-18.69.49C248.45,415.05,270.28,417,283.12,406.63Z"/><path class="cls-8" d="M186.41,376.74c2,4.45,5.82,8.11,7,12.87.68,2.85.41,6.1,2.26,8.39,1.57-4.65.11-9.79-2.1-14.18s-5.16-8.41-6.83-13c-1.34-3.68-1.81-8-4.13-11.09C184.05,365.3,184,371.4,186.41,376.74Z"/><path class="cls-8" d="M208.87,385.62a45.33,45.33,0,0,0-1.64,4.67,23.31,23.31,0,0,0-.31,7.73,18.42,18.42,0,0,1,4.16-6.12,8.64,8.64,0,0,0,1.77-2,7,7,0,0,0,.63-2.35c1.07-7.29,2.69-16.55-.94-23.34C209.32,368.21,211,379.91,208.87,385.62Z"/><path class="cls-9" d="M211.11,117a448.15,448.15,0,0,1-9.06,46.62c-1.6,6.42-3.46,13-7.72,18.14-8.34,10-25,13.4-28,26.06l-.27-13.74a82.24,82.24,0,0,1-31.42.75,21.58,21.58,0,0,0,13.67-17.93,68,68,0,0,1-43.75,20.85,12.08,12.08,0,0,0,7.24-3.59l-12.7-2.95c-3,14.82-6,29.8-5.54,44.91.5,17.53,5.59,34.57,10.64,51.38l14.28,47.56a105.57,105.57,0,0,1-17.25-22.49c-11.42,3.26-24.45,6.33-34.54.09-8-5-11.79-14.52-14.42-23.57a25.44,25.44,0,0,1-23.62,4.52,25.28,25.28,0,0,1-16.43-17.48c10.94,3.07,23.69-2.61,28.66-12.78C37,264.68,33,266,29,265.5s-8.08-3.59-8.24-7.65c9.16,3.11,20.17-5.15,19.68-14.77s-10-18.23-6.85-27.24c.91-2.56,2.76-4.67,4.13-7,4.11-7.08,3.55-15.8,3.45-24a172,172,0,0,1,11.46-63.73c1-2.67,2.12-5.31,3.33-7.91-2.77,4,3.41,9.15,8.06,7.65s7.27-6.21,9.93-10.28c5.35-8.18,12.42-15.07,19.43-21.89,6.5-6.32,13.08-12.7,20.83-17.42,14.45-8.8,31.85-11.19,48.73-12.62s33.93-2.1,50.92-2c11.57.07,23.29.53,34.4,3.76s21.09,9.07,31,14.87L316.41,97c4.48,2.61,9.27,5.59,11.09,10.43s-1.57,11.67-6.72,11c-.67,7.31,5.74,13.06,11.15,18.05a123,123,0,0,1,32,47.94c-4.3-9.56-10.85-20.63-21.37-20.56L350,207.64l4.43,26.05c1.81,10.6,3.69,21.44,9,30.8,4.35,7.69,11.08,16.74,6.39,24.23-2.75,4.39-8.69,6.2-11,10.84-1.58,3.22-1,7-1.59,10.57s-3.35,7.42-6.89,6.75l2.68,10.49a192.08,192.08,0,0,1-54.14-3,42.9,42.9,0,0,0-5.29,25.6,59.53,59.53,0,0,0-18.76-15l3.88,13.1a7.23,7.23,0,0,1-7.18,2,25.16,25.16,0,0,0-6.41-24.89q10.41-52.2,19.47-104.66c.49-2.85.94-6-.49-8.49-3.05-5.37-11.12-3.72-17.06-5.49-9.17-2.73-12.72-14.05-11.95-23.55s4.36-18.79,3.48-28.28c-1-10.85-7.89-20.48-16.45-27.27S223.37,116.3,213.3,112c22.75,12.06,36.25,39.36,32,64.65-6.5-21.65-14.2-45-32.92-57.75l-6.9,17.69Z"/><path class="cls-9" d="M244.52,137.13c10,19.44,13.15,41.56,16.13,63.21,2.14,15.56,4.28,31.13,5.41,46.8,1,13.72,1.18,27.62-1.61,41.09-1.93,9.35-5.29,18.41-6.55,27.87s-.13,19.82,6,27.2c2.19,2.65,5.45,5,8.85,4.34,5.5-1,6.81-8.39,5.62-13.83s-3.68-10.79-4.16-16.43c-1-11.45,6.24-21.75,11.51-32,14.07-27.3,15.3-59.14,16.24-89.81.16-5.28.32-10.64-1-15.76-1.41-5.39-4.39-10.21-7.34-15l-22.94-36.83c-1.68-2.71-3.43-5.48-6-7.36a24.71,24.71,0,0,0-6.81-3.09c-12.35-4.17-25.17-10-37.9-12.53C222,115.58,244.52,124,244.52,137.13Z"/></g></svg>